<svg xmlns="http://www.w3.org/2000/svg" width="1200" height="630" viewBox="0 0 1200 630" role="img" aria-label="Mathias AWS Cloud Practitioner revision social preview">
  <defs>
    <linearGradient id="bg" x1="0%" y1="0%" x2="100%" y2="100%">
      <stop offset="0%" stop-color="#fff8ef"/>
      <stop offset="55%" stop-color="#fffdfb"/>
      <stop offset="100%" stop-color="#f8fbff"/>
    </linearGradient>
    <linearGradient id="hero" x1="0%" y1="0%" x2="100%" y2="100%">
      <stop offset="0%" stop-color="#ff9900"/>
      <stop offset="60%" stop-color="#f97316"/>
      <stop offset="100%" stop-color="#ea580c"/>
    </linearGradient>
    <filter id="shadow" x="-20%" y="-20%" width="140%" height="140%">
      <feDropShadow dx="0" dy="18" stdDeviation="24" flood-color="#172033" flood-opacity="0.12"/>
    </filter>
  </defs>

  <rect width="1200" height="630" fill="url(#bg)"/>
  <circle cx="1040" cy="84" r="130" fill="#fed7aa" opacity="0.55"/>
  <circle cx="112" cy="528" r="140" fill="#bfdbfe" opacity="0.45"/>

  <rect x="72" y="62" width="1056" height="506" rx="34" fill="url(#hero)" filter="url(#shadow)"/>

  <text x="120" y="130" fill="#ffedd5" font-family="Segoe UI, Arial, sans-serif" font-size="28" font-weight="700" letter-spacing="3">AWS CERTIFIED CLOUD PRACTITIONER • CLF-C02</text>
  <text x="120" y="238" fill="#ffffff" font-family="Segoe UI, Arial, sans-serif" font-size="72" font-weight="800">Mathias AWS Cloud</text>
  <text x="120" y="320" fill="#ffffff" font-family="Segoe UI, Arial, sans-serif" font-size="72" font-weight="800">Practitioner Revision</text>

  <text x="120" y="388" fill="#fff7ed" font-family="Segoe UI, Arial, sans-serif" font-size="31">
    Official domains, technologies, concepts, and in-scope AWS services
  </text>

  <rect x="120" y="438" width="226" height="52" rx="26" fill="rgba(255,255,255,0.18)" stroke="rgba(255,255,255,0.22)"/>
  <rect x="362" y="438" width="218" height="52" rx="26" fill="rgba(255,255,255,0.18)" stroke="rgba(255,255,255,0.22)"/>
  <rect x="596" y="438" width="170" height="52" rx="26" fill="rgba(255,255,255,0.18)" stroke="rgba(255,255,255,0.22)"/>

  <text x="233" y="472" text-anchor="middle" fill="#ffffff" font-family="Segoe UI, Arial, sans-serif" font-size="24" font-weight="700">4 Domains</text>
  <text x="471" y="472" text-anchor="middle" fill="#ffffff" font-family="Segoe UI, Arial, sans-serif" font-size="24" font-weight="700">Services</text>
  <text x="681" y="472" text-anchor="middle" fill="#ffffff" font-family="Segoe UI, Arial, sans-serif" font-size="24" font-weight="700">PDF</text>

  <path d="M880 430c0-25 20-45 45-45 7-22 27-37 51-37 31 0 56 25 57 56 14 5 23 18 23 33 0 20-16 36-36 36h-102c-21 0-38-17-38-38Z" fill="#fff7ed"/>
  <path d="M884 500c34 16 84 18 135 4" fill="none" stroke="#9a3412" stroke-width="7" stroke-linecap="round"/>
</svg>
